<?xml version="1.0" standalone="no"?>
<!DOCTYPE svg PUBLIC "-//W3C//DTD SVG 20010904//EN"
 "http://www.w3.org/TR/2001/REC-SVG-20010904/DTD/svg10.dtd">
<svg version="1.0" xmlns="http://www.w3.org/2000/svg"
 width="1024.000000pt" height="1024.000000pt" viewBox="0 0 1024.000000 1024.000000"
 preserveAspectRatio="xMidYMid meet">

<g transform="translate(0.000000,1024.000000) scale(0.100000,-0.100000)"
fill="#000000" stroke="none">
<path d="M6713 7329 c-554 -38 -1109 -245 -1468 -549 -44 -38 -91 -80 -104
-94 l-24 -26 -81 78 c-140 133 -246 207 -435 302 -255 127 -569 218 -916 265
-164 23 -514 30 -702 16 -191 -15 -405 -46 -433 -63 -12 -7 -31 -29 -43 -48
-20 -32 -22 -50 -25 -211 l-4 -176 -86 -7 c-125 -10 -165 -23 -203 -62 l-34
-35 -3 -1802 c-2 -1336 0 -1813 9 -1844 14 -53 68 -117 123 -146 l41 -22 1180
-5 1180 -5 52 -27 c28 -15 91 -40 140 -55 78 -23 105 -27 233 -27 163 -1 217
10 360 72 l85 37 1180 5 1180 5 41 22 c48 25 100 81 123 132 15 33 16 196 16
1836 0 1782 0 1800 -20 1833 -30 50 -72 71 -166 82 -46 6 -99 13 -116 16 l-33
5 0 151 c0 84 -5 168 -11 189 -18 57 -64 97 -129 109 -105 20 -296 40 -475 50
-202 11 -257 11 -432 -1z m-3072 -224 c417 -49 784 -171 1059 -353 80 -53 225
-189 330 -310 39 -44 51 -52 80 -52 29 0 42 8 85 57 135 154 247 246 425 351
398 235 882 345 1435 329 175 -5 456 -29 493 -42 9 -3 12 -344 12 -1656 l0
-1651 -32 6 c-178 31 -468 56 -652 56 -629 0 -1309 -205 -1602 -482 l-52 -49
-6 238 c-3 131 -8 277 -10 325 l-5 87 54 49 c75 69 208 174 443 352 466 352
649 551 762 827 54 134 65 195 65 363 0 135 -3 165 -23 230 -152 486 -686 680
-1118 405 -73 -46 -189 -165 -229 -233 -16 -29 -32 -52 -35 -52 -3 0 -15 18
-27 40 -67 116 -189 225 -328 291 -104 50 -178 69 -295 76 -349 21 -652 -211
-741 -566 -19 -73 -21 -104 -16 -230 6 -174 24 -249 97 -396 120 -243 304
-433 734 -757 269 -203 339 -259 419 -337 l67 -65 0 -112 c0 -61 -3 -206 -7
-322 l-6 -211 -56 50 c-150 134 -374 252 -631 334 -470 148 -996 181 -1597
100 l-53 -8 0 1646 c0 1407 2 1646 14 1650 17 7 302 36 401 41 122 6 418 -4
546 -19z m-1161 -1962 c0 -1448 0 -1479 20 -1510 10 -18 34 -40 51 -49 35 -18
55 -17 229 10 266 42 657 51 930 22 398 -42 745 -149 981 -301 77 -50 211
-173 206 -189 -5 -15 69 -14 -1306 -15 -858 0 -1219 3 -1228 11 -11 8 -13 331
-13 1749 l0 1738 38 4 c20 2 49 4 65 5 l27 2 0 -1477z m5364 1471 l46 -7 0
-1737 c0 -1436 -2 -1739 -13 -1749 -10 -8 -341 -11 -1173 -11 -1099 -1 -1364
3 -1364 20 0 15 129 127 198 174 99 66 242 131 412 186 465 154 1054 184 1593
83 84 -16 89 -16 134 3 32 13 51 29 64 54 18 33 19 90 19 1512 0 1434 1 1478
19 1478 10 0 39 -3 65 -6z m-3289 -519 c191 -50 322 -163 416 -361 61 -126 84
-149 150 -149 41 0 53 5 77 30 16 17 41 59 56 95 39 91 108 191 173 249 218
195 528 201 723 15 74 -70 114 -132 148 -226 36 -101 38 -284 4 -401 -46 -162
-131 -297 -291 -460 -121 -124 -189 -181 -481 -402 -129 -98 -274 -211 -321
-252 -47 -40 -88 -73 -91 -73 -3 0 -46 34 -94 76 -49 42 -179 144 -289 227
-445 336 -589 472 -714 680 -126 207 -146 484 -49 678 41 81 142 188 217 227
110 59 250 77 366 47z"/>
</g>
</svg>
